    <svg width="600" height="600" version="1.1" viewBox="0 0 600 600" xmlns="http://www.w3.org/2000/svg">
        <g transform="matrix(1.3596 0 0 1.3242 -650.18 -714.61)">
            <path fill={"#2A1C00"} className="st0" d="m698.9 570.3c-108 0-195.9 87.9-195.9 195.9s87.9 195.9 195.9 195.9 195.8-87.9 195.8-195.9-87.9-195.9-195.8-195.9zm0 369.1c-95.5 0-173.2-77.7-173.2-173.2s77.6-173.2 173.2-173.2 173.2 77.7 173.2 173.2-77.7 173.2-173.2 173.2z"/>
            <path fill={"#2A1C00"} className="st0" d="m775.3 674.7-115.6 41.8c-3.1 1.1-5.6 3.6-6.7 6.7l-45 119.8c-1.6 4.2-0.5 8.9 2.7 12.1 2.1 2.1 5 3.2 7.9 3.2 1.4 0 2.8-0.3 4.2-0.8l126.3-50.3c3.2-1.2 5.6-3.9 6.6-7.2l34.2-111.3c1.2-4.1 0.1-8.5-3-11.5s-7.6-3.9-11.6-2.5zm-39.7 113.5-97.5 38.9 34.2-91 89.4-32.3z"/>
        </g>
    </svg>