<svg width="600" height="600" enable-background="new 0 0 1419 1419" version="1.1" viewBox="0 0 600 600" xmlns="http://www.w3.org/2000/svg">
 <style type="text/css">.st0{fill:#AA1300;}
	.st1{fill:#FF9E00;stroke:#FF9E00;stroke-width:7;stroke-miterlimit:10;}
	.st2{fill:#006A00;}
	.st3{fill:#44007F;}
	.st4{fill:#001ABF;}</style>
 <g transform="matrix(.28764 1.2207 -1.1911 .2948 2163.7 -1654.4)">
  <path class="st2" d="m977.7 1772.3c-1.1 5.3 1.5 10.7 6.4 13.2l103 52.5 0.4 0.1c4.9 2.7 10.8 6 14.1 9 1.7 1.5 2.7 2.9 2.9 3.3 0.1-0.4-4.4 9.1-23.3 13.1-0.1 0-0.1 0-0.2-0.1l-68.6 15.8c-6.5 1.4-10.6 7.9-9.2 14.4 0.7 3.4 2.9 6.3 5.9 7.9 9.2 5.1 17.7 14.7 21.6 20.3-1.4 2.2-3.7 5.4-6.6 8.8-6.1 7-14.2 14.8-20.2 20-5 4.4-5.6 12-1.2 17 1.9 2.2 4.5 3.6 7.4 4 11.6 1.5 21.9-0.1 29.7 0.1 7.2 0.2 11 1.4 14.8 5.6 1.8 4.3 1.6 8.3-0.5 14.3-2.3 6.6-6.6 14.2-9.5 23.1-2 6.4 1.5 13.1 7.9 15.1 3 0.9 6.2 0.7 9.1-0.7l107.4-54.8 6.8 32.2c1.4 6.5 7.8 10.7 14.3 9.3 3.1-0.6 5.8-2.4 7.5-5l53.7-78.7c9.5 10.7 18.3 21.4 24.1 32.6 7.6 14.7 10.6 29.6 3.9 50.1-2.8 8.5-8.1 18.4-15.6 29.6-4.1 5.3-3.2 12.8 2.1 16.9s12.8 3.2 16.9-2.1c0.4-0.5 0.7-1 1.1-1.6 8.3-12.3 14.7-23.8 18.5-35.5 8.5-26.3 4.3-49.7-5.5-68.6-7-13.7-16.5-25.4-26-36l66.3-33.8c5.9-3 8.3-10.3 5.3-16.2-0.9-1.9-2.4-3.4-4.1-4.6l-26.8-18 62.2-101.2c3.4-5.7 1.6-13.1-4.1-16.6-2.6-1.6-5.7-2.1-8.6-1.5-9.2 2-17.9 5.9-24.9 7.6-3.5 0.9-6.5 0.9-8 0.8-1.5-0.2-1.5-0.1-2-0.6-2.8-3.1-3.1-8.1-1.7-17.2s4.8-20.1 4.5-32.2c-0.2-6.7-5.7-11.9-12.4-11.7-2.9 0.1-5.7 1.2-7.8 3.2-6.7 6.2-15.7 15.5-24.2 22.7-4.2 3.6-8.4 6.5-11.3 8-3.5-4.5-6.9-9-8-11.9-1.5-4.1-2.4-9.7-5.9-18-2.5-6.2-9.5-9.2-15.7-6.7-3.4 1.4-5.9 4.2-7 7.6l-24.2 74.6c-2.7 8.3-6.1 11.2-9.1 12.7s-6.6 1.2-8 0.8c-3.2-1.1-11.7-11-15.3-19.3l-0.1-0.2c0-0.1-0.1-0.2-0.1-0.2l-36.8-100.4c-2.3-6.2-9.3-9.4-15.5-7.1-3.2 1.2-5.8 3.7-7 6.9-6.3 16-8.4 35.4-12.5 47.5-2 6.1-4.6 9.5-5.5 10.1-0.8 0.6-0.8 1.1-5.4-1l-0.2-0.1-49.6-22.5c-6-2.8-13.2-0.3-16.1 5.8-1.2 2.6-1.5 5.5-0.8 8.2l13.8 55.2 0.3 0.9c1.8 5.5 1.2 4.3 0.9 4.6s-4 2.2-10.2 3.2c-12.4 2-32 1.2-49.1 5.9-4.2 1.6-7.5 5.1-8.4 9.5zm52.7 9.8c3.2-0.3 5.6-0.5 8.6-1 8.3-1.3 16.7-3.3 23.5-10.2 6.6-6.7 8-17.9 5-28.1l0.2-0.1-0.3-0.9-7.5-30 27 12.1c0.1 0 0.1 0 0.2 0.1 10.1 4.5 21.9 4.1 29.7-1.7s11.4-13.9 14.1-22c1.2-3.6 1.6-6.5 2.5-10.3l23.8 64.7c0.1 0.2 0.2 0.3 0.2 0.5 5.1 12 13.2 27.7 30.4 33.3 7.5 2.4 16.7 2.3 25.9-2.1s17.3-13.6 21.6-26.9l14.2-43.8c2.4 3.6 5.3 7.2 9.1 11.5 1.4 1.6 3.1 2.7 5 3.4 8 2.6 14.9 0 20.5-2.8 5.6-2.9 10.8-6.7 15.8-10.9l0.3-0.3c-1.2 10.7-1.2 23.1 7.9 33.1 4.7 5.2 11.3 8.1 17.2 8.8 4.3 0.5 8.1-0.4 11.9-1.1l-52.4 85.1c-3.4 5.5-1.9 12.8 3.6 16.4l19.4 13-53.7 27.4-47.1-52.3c-4.4-5-12.1-5.4-17-1-1.9 1.7-3.3 4-3.8 6.5-0.9 3.9 0.3 8 3 10.9l45.7 50.3-41.2 60.2-4-20c-1.4-6.5-7.8-10.7-14.3-9.3-1.1 0.2-2.1 0.6-3 1.1l-94.1 48c2.1-8.7 3-18.5-2.1-28.4-0.4-0.7-0.8-1.4-1.3-2-9.2-11.7-22.9-15.1-33.8-15.5 0.5-0.5 1-0.8 1.4-1.3 3.6-4.2 6.9-8.2 9.4-12.6 2.6-4.4 5.6-9 3.9-17-0.2-1-0.6-2-1-2.9-2.8-5.4-7-11.3-12.3-16.9l43.9-10.1c25.5-5.4 37.5-17.9 41.2-29.2 1.9-5.9 1.2-12.5-1.1-17.4-2.2-4.9-5.6-8.5-9-11.4-6.7-5.8-14.2-9.5-18.9-12.1-0.1 0-0.1 0-0.2-0.1z"/>
 </g>
</svg>
