<?xml version="1.0" encoding="utf-8"?>
<!-- Generator: Adobe Illustrator 27.9.0, SVG Export Plug-In . SVG Version: 6.00 Build 0)  -->
<svg version="1.1" id="Layer_1" xmlns="http://www.w3.org/2000/svg" xmlns:xlink="http://www.w3.org/1999/xlink" x="0px" y="0px"
	 viewBox="0 0 1419 1419" style="enable-background:new 0 0 1419 1419;" xml:space="preserve">
<style type="text/css">
	.st0{fill:#AA1300;}
	.st1{fill:#FF9E00;stroke:#FF9E00;stroke-width:7;stroke-miterlimit:10;}
	.st2{fill:#2A1C00;}
	.st3{fill:#006A00;}
	.st4{fill:#44007F;}
	.st5{fill:#001ABF;}
</style>
<path class="st0" d="M932.8,566.5c22,16,52.9,11.2,68.9-10.8c9.1-12.5,11.8-28.5,7.4-43.3c13.1,2.2,26.3-3.2,34.2-13.9l83-114.2
	l17.1,12.4c15.8,11.4,37.8,7.9,49.3-7.8l33.2-45.7c11.4-15.8,7.9-37.8-7.8-49.3l-17.1-12.4l4.1-5.7c9.2-12.6,6.4-30.3-6.2-39.4
	L1010.5,99.3c-12.6-9.2-30.3-6.4-39.4,6.2l-4.1,5.7l-17.1-12.4c-15.8-11.4-37.8-7.9-49.3,7.8l-33.2,45.7
	c-11.4,15.8-7.9,37.8,7.8,49.3l17.1,12.4l-83,114.2c-6.9,9.5-8.6,21.7-4.6,32.7c-27.2-1.5-50.5,19.4-51.9,46.7
	c-0.9,16.7,6.7,32.8,20.3,42.6L932.8,566.5z M1192.7,292.8l17.1,12.4c9.5,6.9,11.6,20.1,4.7,29.6l-33.2,45.7
	c-6.9,9.5-20.1,11.6-29.6,4.7l-17.1-12.4L1192.7,292.8z M883.3,190.2c-9.5-6.9-11.6-20.1-4.7-29.6l16.6-22.8l22.8,16.6l-16.6,22.8
	c-4.5,6.2-6.8,13.7-6.6,21.4L883.3,190.2z M934.7,131.5l-8.3,11.4l-22.8-16.6l8.3-11.4c6.9-9.5,20.1-11.6,29.6-4.7l11.6,8.4
	C945.7,120.8,939.2,125.4,934.7,131.5z M901.1,526l-34.9-25.4c26.9-3.9,45.6-28.9,41.7-55.8c-0.1-0.4-0.1-0.9-0.2-1.3l34.9,25.4
	c15.8,11.5,19.3,33.5,7.8,49.3C939,534,916.9,537.4,901.1,526z M963.9,379.6l12.4-17.1l45.7,33.2l-12.4,17.1l11.4,8.3l12.4-17.1
	l11.4,8.3c3.2,2.3,3.9,6.7,1.6,9.9l-37.3,51.4c-6.9,9.5-20.1,11.6-29.6,4.7L888,411.7c7.3-2.2,13.8-6.7,18.3-12.9l37.3-51.4
	c2.3-3.2,6.7-3.9,9.9-1.6l11.4,8.3l-12.4,17.1L963.9,379.6z M990.4,547.2c-11.5,15.7-33.5,19.2-49.3,7.8l-12-8.8
	c26.9-3.9,45.6-28.9,41.7-55.8c-0.1-0.4-0.1-0.9-0.2-1.3l12,8.8C998.4,509.4,1001.9,531.4,990.4,547.2z M1044.7,141.6l145.9,106
	c6.3,4.6,7.7,13.4,3.1,19.7l-161.8,222.7c-6.9,9.5-20.1,11.6-29.6,4.7l-0.1-0.1c7.3-2.2,13.8-6.7,18.3-12.9l37.3-51.4
	c6.9-9.5,4.8-22.7-4.7-29.6l-11.4-8.3l16.6-22.8l-11.4-8.3l-16.6,22.8l-45.7-33.2l16.6-22.8l-11.4-8.3l-16.6,22.8l-11.4-8.3
	c-9.5-6.9-22.7-4.8-29.6,4.7l-37.3,51.4c-6.9,9.5-20.1,11.6-29.6,4.7l-5.9-4.3c7.3-2.2,13.8-6.7,18.3-12.9l161.8-222.7
	C1042.4,151.3,1044.2,146.6,1044.7,141.6z M851.3,402.5l28.6,20.7c15.8,11.5,19.3,33.5,7.8,49.3c-11.5,15.8-33.5,19.3-49.3,7.8
	l-29.2-21.2c26.9-3.9,45.6-28.9,41.7-55.8c-0.1-0.4-0.1-0.9-0.2-1.3L851.3,402.5z M912.9,185.5l33.2-45.7
	c6.9-9.5,20.1-11.6,29.6-4.7l17.1,12.4l-58.1,80l-17.1-12.4C908.1,208.2,906,195,912.9,185.5z M820.6,336.6L904,221.8
	c1.6,1.7,3.4,3.3,5.3,4.7l22.8,16.6c3.2,2.3,7.6,1.6,9.9-1.6l66.4-91.4c2.3-3.2,1.6-7.6-1.6-9.9L984,123.7c-1.9-1.4-4-2.6-6.1-3.6
	l4.6-6.3c4.6-6.3,13.4-7.7,19.7-3.1l22.8,16.6c6.3,4.6,7.7,13.4,3.1,19.7L866.3,369.8c-6.9,9.5-20.1,11.6-29.6,4.7l-11.4-8.3
	C815.8,359.3,813.7,346.1,820.6,336.6z M773.4,389.6c11.5-15.8,33.5-19.3,49.3-7.8c15.8,11.5,19.3,33.5,7.8,49.3
	c-11.5,15.8-33.5,19.3-49.3,7.8C765.5,427.4,762,405.3,773.4,389.6z"/>
<g>
	<g>
		<path class="st1" d="M489.6,1074.1c-1-3.2-3.7-5.6-7.1-6.2c-5-1-9.9,2.3-10.9,7.3c-0.3,1.5-0.2,3.1,0.3,4.6
			c0.5,1.5,1.3,2.8,2.5,3.9c1.8,1.7,4.2,2.6,6.7,2.5c2.5-0.1,4.8-1.1,6.5-2.9C489.9,1080.8,490.7,1077.3,489.6,1074.1z"/>
	</g>
	<g>
		<path class="st1" d="M490.9,1135.7c0-0.3-0.1-0.5-0.1-0.8c0-0.2,0-0.3,0-0.5c-2.1-14.2,4-26.5,11-40.8
			c7.5-15.4,16.1-32.8,14.9-55.3c-0.3-6.6-2.8-13.2-5.1-18.9c-2.2-5.7-4.4-11.6-3.4-14.7c1.5-1.7,3.9-3.7,6.1-5.6
			c3.1-2.6,6.3-5.3,8.6-8.3c4.6-5.8,4.3-10.9,3.3-14.1c-1.3-4-4.9-9-14.6-10c-4.9-0.5-10.3,0-15.1,0.4c-1.1,0.1-2.3,0.2-3.3,0.3
			c-27.4-31.7-51.4-99-55.2-155c-1.7-60.9-25-108.8-67.2-138.6c-14-9.8-30-17.7-47.6-23.2c-17.2-5.5-36.2-8.8-56.2-9.9
			c-19.9-1.1-41,0-62.8,3.2c-21.9,3.2-44.5,8.6-67.4,16L21.7,697.4c-9,2.9-13.9,12.6-11,21.6l13.4,41.1c2.4,7.4,9.5,12.3,17.3,11.8
			c0,0,0.1,0,0.1,0c18.8,0.5,36,6.2,51.8,17.3l-33.7,57.1c-3.2,4.4-4.2,10.1-2.5,15.4l12.8,39.4c2.9,9,12.6,13.9,21.6,11
			c2.5-0.8,4.7-2.2,6.6-4c0.1-0.1,0.1-0.1,0.2-0.2l50.6-46.4c12.3,25.4,21.3,52,28.5,73.9c-24.8,7.9-48.5,18.6-70.4,31.8
			c-0.3,0.2-0.5,0.4-0.8,0.5c-7.1,3.9-10.5,12.5-8,20.2l13.4,41.1c2.8,8.7,11.9,13.6,20.8,11.2c0,0,0.1,0,0.1,0
			c20.5-4.6,39.3-7.6,56.7-9.3l-51.9,31.7c-0.2,0.1-0.4,0.2-0.5,0.4c-6.8,4-10,12.4-7.6,20l13.1,40.2c1.8,5.5,6,9.4,11.1,11
			c1.7,1.2,4,1.6,6.1,0.9l0.4-0.1c1.3-0.1,2.6-0.4,3.9-0.8c0.8-0.3,1.6-0.7,2.2-1.2l182.4-59.3c18.7,16.6,33.4,36.6,46.3,57.6
			c8.2,14,20.6,24.2,35.8,29.3c12.9,4.4,27,4.7,38.7,1.1C483.5,1157.2,491.8,1147.2,490.9,1135.7z M89.1,897.3
			c-0.2,0.2-0.5,0.4-0.7,0.6c-0.3,0.4-0.8,0.6-1.2,0.8c-1.6,0.5-3.2-0.3-3.7-1.9l-12.8-39.4c-0.3-1-0.1-2.1,0.6-2.9
			c0.7-0.7,1.2-1.6,1.5-2.4l31.8-53.9c10.2,9.2,19.8,21,28.8,35.2c3.1,5,6.1,10.1,8.9,15.3L89.1,897.3z M157.7,1120.9
			c-0.9-0.2-1.8-1-2.1-2l-13.1-40.2c-0.5-1.4,0.2-2.9,1.5-3.6c0.5-0.2,0.9-0.5,1.3-0.8l72.1-43.9c0.4-0.3,0.8-0.6,1.1-0.9
			c51.4-0.3,88.4,13,116.7,33.6L157.7,1120.9L157.7,1120.9z M406.9,1124.1C406.8,1124.1,406.8,1124.1,406.9,1124.1
			c-0.1-0.1-0.1-0.1-0.1-0.1c-13.2-21.4-26.8-38.8-41.3-53.1c-17.1-16.8-35.5-29.3-56.4-38.4c-47.3-20.5-106.2-22.4-180.1-5.7
			c-0.2,0-0.3,0.1-0.5,0.1c-1.5,0.3-2.9-0.6-3.4-2l-13.4-41.1c-0.5-1.4,0.2-2.9,1.5-3.6c0.5-0.3,1-0.6,1.5-1
			c43.1-26,94.4-41.8,144.4-44.4c3.9-0.2,6.9-3.5,6.7-7.4s-3.5-6.9-7.4-6.7c-22.5,1.2-45.1,4.8-67.4,10.8
			c-7.9-24.3-18.1-54.3-32.6-82.6c-0.2-1.4-0.8-2.8-1.8-4c-0.2-0.2-0.3-0.4-0.5-0.5c-3.4-6.4-7-12.7-10.9-18.7
			c-12.9-20.3-27.3-36.2-42.8-47.4c-18.4-13.2-39-20.2-61-20.6c-0.3,0-0.6,0-0.9,0.1c-1.3,0-2.5-0.8-2.9-2.1l-13.4-41.1
			c-0.5-1.6,0.3-3.2,1.9-3.7l115.2-37.4c88.9-28.9,169.6-24.5,221.4,12c38.5,27.1,59.7,71.3,61.2,127.6c0,0.1,0,0.2,0,0.3
			c1.9,28.2,8.8,60.4,19.6,90.6c11.3,31.8,25.9,58.5,41.1,75.1c0,0,0.1,0.1,0.1,0.1c1.3,1.6,3.3,2.6,5.5,2.6c2.3,0,4.9-0.3,7.6-0.5
			c3.4-0.3,7.1-0.7,10.3-0.6c2.3,0.1,3.6,0.4,4.2,0.6c-1.1,1.9-5,5.2-7.2,7c-3.1,2.6-6.3,5.3-8.6,8.3c-0.3,0.4-0.5,0.8-0.8,1.2
			c-4.3,8.5-0.8,17.8,2.6,26.7c1.9,5,3.9,10.2,4.1,14.6c1,18.9-6.4,33.9-13.5,48.4c-7.4,15-15,30.5-12.3,49.1c0,0.1,0,0.2,0,0.2
			c0,0,0,0.1,0,0.1c0.4,5.5-5.8,9.5-11.9,11.4C450.6,1152.8,422.1,1150.2,406.9,1124.1z"/>
	</g>
</g>
<g>
	<path class="st2" d="M698.9,570.3c-108,0-195.9,87.9-195.9,195.9s87.9,195.9,195.9,195.9s195.8-87.9,195.8-195.9
		S806.8,570.3,698.9,570.3z M698.9,939.4c-95.5,0-173.2-77.7-173.2-173.2S603.3,593,698.9,593s173.2,77.7,173.2,173.2
		S794.4,939.4,698.9,939.4z"/>
	<path class="st2" d="M775.3,674.7l-115.6,41.8c-3.1,1.1-5.6,3.6-6.7,6.7L608,843c-1.6,4.2-0.5,8.9,2.7,12.1c2.1,2.1,5,3.2,7.9,3.2
		c1.4,0,2.8-0.3,4.2-0.8l126.3-50.3c3.2-1.2,5.6-3.9,6.6-7.2l34.2-111.3c1.2-4.1,0.1-8.5-3-11.5
		C783.8,674.2,779.3,673.3,775.3,674.7z M735.6,788.2l-97.5,38.9l34.2-91l89.4-32.3L735.6,788.2z"/>
</g>
<g transform="translate(0,-952.36218)">
	<path class="st3" d="M977.7,1772.3c-1.1,5.3,1.5,10.7,6.4,13.2l103,52.5l0.4,0.1c4.9,2.7,10.8,6,14.1,9c1.7,1.5,2.7,2.9,2.9,3.3
		c0.1-0.4-4.4,9.1-23.3,13.1c-0.1,0-0.1,0-0.2-0.1l-68.6,15.8c-6.5,1.4-10.6,7.9-9.2,14.4c0.7,3.4,2.9,6.3,5.9,7.9
		c9.2,5.1,17.7,14.7,21.6,20.3c-1.4,2.2-3.7,5.4-6.6,8.8c-6.1,7-14.2,14.8-20.2,20c-5,4.4-5.6,12-1.2,17c1.9,2.2,4.5,3.6,7.4,4
		c11.6,1.5,21.9-0.1,29.7,0.1c7.2,0.2,11,1.4,14.8,5.6c1.8,4.3,1.6,8.3-0.5,14.3c-2.3,6.6-6.6,14.2-9.5,23.1
		c-2,6.4,1.5,13.1,7.9,15.1c3,0.9,6.2,0.7,9.1-0.7l107.4-54.8l6.8,32.2c1.4,6.5,7.8,10.7,14.3,9.3c3.1-0.6,5.8-2.4,7.5-5l53.7-78.7
		c9.5,10.7,18.3,21.4,24.1,32.6c7.6,14.7,10.6,29.6,3.9,50.1c-2.8,8.5-8.1,18.4-15.6,29.6c-4.1,5.3-3.2,12.8,2.1,16.9
		c5.3,4.1,12.8,3.2,16.9-2.1c0.4-0.5,0.7-1,1.1-1.6c8.3-12.3,14.7-23.8,18.5-35.5c8.5-26.3,4.3-49.7-5.5-68.6
		c-7-13.7-16.5-25.4-26-36l66.3-33.8c5.9-3,8.3-10.3,5.3-16.2c-0.9-1.9-2.4-3.4-4.1-4.6l-26.8-18l62.2-101.2
		c3.4-5.7,1.6-13.1-4.1-16.6c-2.6-1.6-5.7-2.1-8.6-1.5c-9.2,2-17.9,5.9-24.9,7.6c-3.5,0.9-6.5,0.9-8,0.8c-1.5-0.2-1.5-0.1-2-0.6
		c-2.8-3.1-3.1-8.1-1.7-17.2c1.4-9.1,4.8-20.1,4.5-32.2c-0.2-6.7-5.7-11.9-12.4-11.7c-2.9,0.1-5.7,1.2-7.8,3.2
		c-6.7,6.2-15.7,15.5-24.2,22.7c-4.2,3.6-8.4,6.5-11.3,8c-3.5-4.5-6.9-9-8-11.9c-1.5-4.1-2.4-9.7-5.9-18c-2.5-6.2-9.5-9.2-15.7-6.7
		c-3.4,1.4-5.9,4.2-7,7.6l-24.2,74.6c-2.7,8.3-6.1,11.2-9.1,12.7c-3,1.5-6.6,1.2-8,0.8c-3.2-1.1-11.7-11-15.3-19.3l-0.1-0.2
		c0-0.1-0.1-0.2-0.1-0.2l-36.8-100.4c-2.3-6.2-9.3-9.4-15.5-7.1c-3.2,1.2-5.8,3.7-7,6.9c-6.3,16-8.4,35.4-12.5,47.5
		c-2,6.1-4.6,9.5-5.5,10.1c-0.8,0.6-0.8,1.1-5.4-1l-0.2-0.1l-49.6-22.5c-6-2.8-13.2-0.3-16.1,5.8c-1.2,2.6-1.5,5.5-0.8,8.2
		l13.8,55.2c0.1,0.3,0.2,0.6,0.3,0.9c1.8,5.5,1.2,4.3,0.9,4.6s-4,2.2-10.2,3.2c-12.4,2-32,1.2-49.1,5.9
		C981.9,1764.4,978.6,1767.9,977.7,1772.3L977.7,1772.3z M1030.4,1782.1c3.2-0.3,5.6-0.5,8.6-1c8.3-1.3,16.7-3.3,23.5-10.2
		c6.6-6.7,8-17.9,5-28.1l0.2-0.1l-0.3-0.9l-7.5-30l27,12.1c0.1,0,0.1,0,0.2,0.1c10.1,4.5,21.9,4.1,29.7-1.7
		c7.8-5.8,11.4-13.9,14.1-22c1.2-3.6,1.6-6.5,2.5-10.3l23.8,64.7c0.1,0.2,0.2,0.3,0.2,0.5c5.1,12,13.2,27.7,30.4,33.3
		c7.5,2.4,16.7,2.3,25.9-2.1s17.3-13.6,21.6-26.9l14.2-43.8c2.4,3.6,5.3,7.2,9.1,11.5c1.4,1.6,3.1,2.7,5,3.4c8,2.6,14.9,0,20.5-2.8
		c5.6-2.9,10.8-6.7,15.8-10.9c0.1-0.1,0.2-0.2,0.3-0.3c-1.2,10.7-1.2,23.1,7.9,33.1c4.7,5.2,11.3,8.1,17.2,8.8
		c4.3,0.5,8.1-0.4,11.9-1.1l-52.4,85.1c-3.4,5.5-1.9,12.8,3.6,16.4l19.4,13l-53.7,27.4L1207,1847c-4.4-5-12.1-5.4-17-1
		c-1.9,1.7-3.3,4-3.8,6.5c-0.9,3.9,0.3,8,3,10.9l45.7,50.3l-41.2,60.2l-4-20c-1.4-6.5-7.8-10.7-14.3-9.3c-1.1,0.2-2.1,0.6-3,1.1
		l-94.1,48c2.1-8.7,3-18.5-2.1-28.4c-0.4-0.7-0.8-1.4-1.3-2c-9.2-11.7-22.9-15.1-33.8-15.5c0.5-0.5,1-0.8,1.4-1.3
		c3.6-4.2,6.9-8.2,9.4-12.6c2.6-4.4,5.6-9,3.9-17c-0.2-1-0.6-2-1-2.9c-2.8-5.4-7-11.3-12.3-16.9l43.9-10.1
		c25.5-5.4,37.5-17.9,41.2-29.2c1.9-5.9,1.2-12.5-1.1-17.4c-2.2-4.9-5.6-8.5-9-11.4c-6.7-5.8-14.2-9.5-18.9-12.1
		c-0.1,0-0.1,0-0.2-0.1L1030.4,1782.1L1030.4,1782.1z"/>
</g>
<g>
	<path class="st4" d="M928.3,1341.2c-5.5-4.5-13.7-3.7-18.2,1.8l-12.9,15.7l-184.1-296.8c-2.3-3.8-6.5-6.1-10.9-6.1
		c-4.4,0-8.6,2.2-11,6l-188.4,294.1l-12.6-15.9c-4.4-5.6-12.6-6.5-18.2-2.1c-5.6,4.4-6.5,12.6-2.1,18.2l17,21.3
		c2.4,3.1,6.1,4.9,10,4.9l152.9,1.1c1.1,0,1.7-0.1,2-0.4c0.1,0,0.2,0,0.3,0c4.5-1.2,8.1-4.7,9.3-9.3l39.6-151.1l37.3,151.6
		c1.1,4.5,4.5,8,8.9,9.3c0.5,0.3,1.3,0.5,2.5,0.5l152.9,1.1c3.9,0,7.6-1.7,10.1-4.7l17.3-21.1
		C934.6,1353.9,933.8,1345.7,928.3,1341.2z M642.2,1344.7l-25.4-26.6l52.8-78.1L642.2,1344.7z M688.4,1166l-98.9,146.2
		c-3.4,5.1-2.8,11.8,1.4,16.2l27.5,28.7l-85.4-0.6l155.9-243.2L688.4,1166z M732,1240.5l51.7,78.8l-25.8,26.2L732,1240.5z
		 M781.6,1358.4l27.9-28.3c4.3-4.3,4.9-11.1,1.6-16.2l-96.8-147.7l0.4-52.7L866.9,1359L781.6,1358.4z"/>
</g>
<path class="st5" d="M523.3,43c-17.6-10.2-37.3-8.5-55.5,4.7l-72,52.3l-21.6,15.7L164.9,267.8c-18.2,13.2-25.9,31.5-21.7,51.3
	c4.3,19.9,19.7,37.8,43.5,50.4l146.9,78c0.5,0.3,1.1,0.6,1.7,0.9l132.1,70.2c23.6,12.5,44.4,13.7,58.6,3.3
	c14.3-10.4,19.6-30.5,15-56.8l-27.4-155.7c-0.1-0.5-0.1-0.9-0.2-1.4l-5.5-31.2c22.7,11.5,42.8,12.4,56.7,2.3l0,0
	c14.3-10.4,19.6-30.5,15-56.8L557.8,99.9C553.2,73.4,540.9,53.2,523.3,43z M352,432.2c1.5-2.9,3.7-5.3,6.9-6.5
	c5.8-2.2,13.9-0.1,23.6,6.1c26.7,17,47.6,21.6,58.8,13c4.2-3.3,10.6-11.4,5.2-29c-2.4-7.9-1.9-12.9-0.5-14.2c1.1-1,4.7-0.7,10,2.2
	c14.6,7.7,22.2,2,24.8-0.8c13-14.1-1.8-51.5-11.8-72.5l-2.4-5.1c-9-19-8.1-26.5-7.4-27.4c0.9-0.6,8.2-0.5,25,11.3l7.6,5.3
	l26.4,149.9c3,17.3,0.3,30.1-7.9,36c-8.1,5.9-21.2,4.6-36.7-3.7L352,432.2z M463.1,151.5l17.6,99.9c0,1.4,0.3,2.9,0.8,4.3l5.1,28.9
	c-23.4-14.7-36.1-13.1-42.9-8.2c-0.5,0.4-1,0.8-1.5,1.2c-6.9,6.3-11.8,20.9,4.3,54.8l2.4,5.1c12.4,26.2,14.2,39.8,14,44.7
	c-0.1-0.1-0.3-0.1-0.4-0.2c-13.5-7.2-25.6-7.5-33.1-0.9c-8,7-9.7,20.6-4.7,37.5c1,3.4,0.8,4.9,0.7,5.1c-0.8,1-10.6,2.7-34.5-12.4
	c-20.8-13.2-35.2-12.2-43.6-9.1c-8,3-14,9.3-17.7,18.3l-136.5-72.5c-15.1-8-25.1-18.6-27.3-28.9c-2.2-10.3,3.2-21.1,14.8-29.5
	l209.3-152.1l21.6-15.7c11.6-8.4,23.5-10.2,32.6-4.9C453.2,121.9,460.2,134.6,463.1,151.5z M535.1,99.2l21.6,122.5
	c3,17.3,0.2,30.1-7.9,36c-8,5.8-20.8,4.6-36.1-3.3l-10.1-6.7l-16.8-95.5c-4.7-26.5-16.9-46.7-34.5-56.9c-0.7-0.4-1.5-0.8-2.2-1.2
	l34.3-24.9C495,60.8,506.9,59,516,64.3C525.2,69.6,532.1,82.3,535.1,99.2z"/>
</svg>
