<svg xmlns="http://www.w3.org/2000/svg" xmlns:xlink="http://www.w3.org/1999/xlink" version="1.1" x="0px" y="0px" viewBox="0 0 100 125" enable-background="new 0 0 100 100" xml:space="preserve"><path d="M93.022,66.952L82.795,50.303c-2.195-3.569-5.225-5.535-8.532-5.535c0,0,0,0,0,0c-3.214,0-6.167,1.857-8.345,5.237  l-2.609-4.245c-0.035-0.064-0.073-0.127-0.115-0.188L50.189,24.417c-2.195-3.569-5.225-5.535-8.532-5.535  c-3.308,0-6.337,1.965-8.533,5.535L20.82,44.432c-0.06,0.083-0.113,0.168-0.158,0.257L6.978,66.951  c-2.215,3.602-2.583,7.11-1.036,9.879c1.546,2.765,4.722,4.289,8.945,4.289h48.536h5.002h16.687c4.222,0,7.399-1.523,8.945-4.289  C95.605,74.061,95.237,70.553,93.022,66.952z M36.492,26.488c1.448-2.354,3.283-3.652,5.165-3.652c1.881,0,3.716,1.297,5.164,3.652  l12.524,20.374l-0.563,1.307c-1.25,2.902-2.346,3.55-2.545,3.555c-0.2-0.04-1.166-0.869-1.893-3.944l-0.194-0.82  c-0.805-3.407-2.681-9.208-6.204-9.776c-0.706-0.114-2.494-0.14-3.852,2.068c-0.5,0.813-1.006,1.157-1.285,1.138  c-0.359-0.025-0.978-0.583-1.488-1.749c-1.133-2.587-2.989-3.014-3.994-3.039c-2.645-0.064-5.305,2.319-7.488,6.711  c-0.791,1.592-1.799,2.563-2.915,2.805c-0.619,0.135-1.225,0.033-1.774-0.182L36.492,26.488z M73.919,74.9  c-0.804,1.439-2.806,2.264-5.494,2.264h-5.002H14.887c-2.687,0-4.689-0.825-5.494-2.264c-0.806-1.441-0.458-3.584,0.953-5.879  l12.72-20.691c1.545,0.754,3.162,0.986,4.701,0.652c1.625-0.353,3.917-1.492,5.615-4.909c1.949-3.921,3.632-4.563,3.859-4.518  c0.042,0.016,0.242,0.177,0.459,0.672c1.083,2.472,2.846,3.968,4.836,4.106c1.875,0.13,3.67-0.968,4.927-3.011  c0.013-0.021,0.025-0.041,0.038-0.059c0.572,0.561,1.8,2.365,2.802,6.604l0.194,0.821c1.295,5.487,3.648,6.821,5.393,6.974  c0.115,0.01,0.233,0.016,0.354,0.016c1.571,0,3.67-0.92,5.606-4.74l2.415,3.928c0.084,0.211,0.204,0.408,0.357,0.581l8.345,13.576  C74.378,71.316,74.725,73.459,73.919,74.9z M90.606,74.9c-0.804,1.438-2.806,2.264-5.493,2.264H77.17  c0.069-0.11,0.137-0.221,0.201-0.334c1.547-2.769,1.18-6.277-1.036-9.879l-7.977-12.977l0.796-1.689  c1.44-2.298,3.251-3.563,5.109-3.563c1.881,0,3.716,1.297,5.164,3.651l10.227,16.648C91.064,71.316,91.412,73.459,90.606,74.9z"/><text x="0" y="115" fill="#000000" font-size="5px" font-weight="bold" font-family="'Helvetica Neue', Helvetica, Arial-Unicode, Arial, Sans-serif">Created by Larisa Skosyrska</text><text x="0" y="120" fill="#000000" font-size="5px" font-weight="bold" font-family="'Helvetica Neue', Helvetica, Arial-Unicode, Arial, Sans-serif">from the Noun Project</text></svg>