<svg xmlns="http://www.w3.org/2000/svg" viewBox="0 0 64 80" x="0px" y="0px"><title>Backpack-bag-travel-trekking</title><path d="M19,2a6.991,6.991,0,0,0-4.242,12.555A4.989,4.989,0,0,0,12,19V39H9a5.006,5.006,0,0,0-5,5v8a5.006,5.006,0,0,0,5,5h3v1a4,4,0,0,0,4,4H49a4,4,0,0,0,4-4V57h3a5.006,5.006,0,0,0,5-5V44a5.006,5.006,0,0,0-5-5H53V19a5,5,0,0,0-2.193-4.134A6.995,6.995,0,0,0,47,2ZM12,55H9a3,3,0,0,1-3-3V44a3,3,0,0,1,3-3h3ZM56,41a3,3,0,0,1,3,3v4H55V44a4.948,4.948,0,0,0-1.026-3ZM55,52V50h4v2a3,3,0,0,1-3,3H53.974A4.948,4.948,0,0,0,55,52ZM26,4h6.11a6.979,6.979,0,0,0,0,10H26A5,5,0,0,1,26,4Zm5,22v3H23V26H21v3H19a1,1,0,0,1-1-1V19a3,3,0,0,1,3-3H37.026A4.948,4.948,0,0,0,36,19v9a1,1,0,0,1-1,1H33V26ZM14,9a5.006,5.006,0,0,1,5-5h2.11a6.979,6.979,0,0,0,0,10H19A5.006,5.006,0,0,1,14,9ZM41.556,60H16a2,2,0,0,1-2-2V19a3,3,0,0,1,3-3h.026A4.948,4.948,0,0,0,16,19v9a3,3,0,0,0,3,3h2v4h2V31h8v4h2V31h2a3,3,0,0,0,3-3V19a3,3,0,0,1,3-3h1.026A4.948,4.948,0,0,0,41,19V58A3.959,3.959,0,0,0,41.556,60ZM42,14H37A5,5,0,0,1,37,4h5.11a6.979,6.979,0,0,0,0,10ZM53,44v8a3,3,0,0,1-3,3H47V41h3A3,3,0,0,1,53,44ZM51,19V39.1a5,5,0,0,0-1-.1H46a1,1,0,0,0-1,1V56a1,1,0,0,0,1,1h4a5,5,0,0,0,1-.1V58a2,2,0,0,1-2,2H45a2,2,0,0,1-2-2V19a3,3,0,0,1,3-3h2A3,3,0,0,1,51,19ZM52,9a5,5,0,1,1-5-5A5.006,5.006,0,0,1,52,9Z"/><path d="M44,9a3,3,0,1,0,3-3A3,3,0,0,0,44,9Zm4,0a1,1,0,1,1-1-1A1,1,0,0,1,48,9Z"/><path d="M35,37H20a3,3,0,0,0-3,3V54a3,3,0,0,0,3,3H35a3,3,0,0,0,3-3V40A3,3,0,0,0,35,37Zm1,17a1,1,0,0,1-1,1H20a1,1,0,0,1-1-1V45.974A4.948,4.948,0,0,0,22,47H33a4.948,4.948,0,0,0,3-1.026Zm0-12a3,3,0,0,1-3,3H22a3,3,0,0,1-3-3V40a1,1,0,0,1,1-1H35a1,1,0,0,1,1,1Z"/><rect x="26" y="41" width="2" height="2"/><path d="M27.707,48.293a1,1,0,0,0-1.414,0l-2,2a1,1,0,0,0,0,1.414l2,2a1,1,0,0,0,1.414,0l2-2a1,1,0,0,0,0-1.414ZM27,51.586,26.414,51,27,50.414l.586.586Z"/><text x="0" y="79" fill="#000000" font-size="5px" font-weight="bold" font-family="'Helvetica Neue', Helvetica, Arial-Unicode, Arial, Sans-serif">Created by Turkkub</text><text x="0" y="84" fill="#000000" font-size="5px" font-weight="bold" font-family="'Helvetica Neue', Helvetica, Arial-Unicode, Arial, Sans-serif">from the Noun Project</text></svg>