<svg xmlns="http://www.w3.org/2000/svg" xmlns:xlink="http://www.w3.org/1999/xlink" version="1.1" x="0px" y="0px" viewBox="0 0 91 113.75" enable-background="new 0 0 91 91" xml:space="preserve"><g><path d="M89.791,69.17c-1.081-0.874-2.663-0.704-3.533,0.375L83.78,72.61L47.636,15.271c-0.46-0.729-1.262-1.172-2.125-1.172   c-0.862,0-1.665,0.442-2.125,1.172L7.237,72.604l-2.469-3.059c-0.871-1.08-2.453-1.249-3.533-0.377   c-1.08,0.871-1.248,2.453-0.377,3.533l3.323,4.117c0.477,0.591,1.195,0.935,1.955,0.935h29.67c0.21,0,0.327-0.028,0.39-0.077   c0.021-0.005,0.041-0.003,0.062-0.008c0.88-0.234,1.563-0.927,1.788-1.809l7.464-29.369l7.464,29.369   c0.221,0.868,0.889,1.547,1.749,1.792c0.095,0.065,0.249,0.102,0.493,0.102h29.669c0.759,0,1.478-0.343,1.954-0.934l3.327-4.117   C91.038,71.624,90.87,70.042,89.791,69.17z M34.282,70.266l-4.966-5.117l10.135-15.224L34.282,70.266z M42.998,35.53L24.01,64.051   c-0.655,0.985-0.535,2.294,0.289,3.143l5.372,5.535H13.099l29.899-47.42V35.53z M51.567,49.925l10.136,15.224l-4.966,5.117   L51.567,49.925z M61.349,72.729l5.372-5.535c0.824-0.849,0.944-2.158,0.289-3.143L48.023,35.534V25.31l29.892,47.419H61.349z"/></g><text x="0" y="106" fill="#000000" font-size="5px" font-weight="bold" font-family="'Helvetica Neue', Helvetica, Arial-Unicode, Arial, Sans-serif">Created by BomSymbols</text><text x="0" y="111" fill="#000000" font-size="5px" font-weight="bold" font-family="'Helvetica Neue', Helvetica, Arial-Unicode, Arial, Sans-serif">from the Noun Project</text></svg>