<svg xmlns="http://www.w3.org/2000/svg" xmlns:xlink="http://www.w3.org/1999/xlink" version="1.1" x="0px" y="0px" viewBox="0 0 2000 2500" style="enable-background:new 0 0 2000 2000;" xml:space="preserve"><g><g><path d="M1541.25,643.03c-8.57,0-16.47,4.66-20.63,12.16c-6.29,11.37-2.16,25.74,9.22,32.04c3.48,1.92,7.43,2.94,11.41,2.94    c3.99,0,7.94-1.02,11.41-2.95c5.51-3.05,9.51-8.07,11.25-14.12c1.74-6.06,1.01-12.42-2.04-17.92    C1557.72,647.69,1549.82,643.03,1541.25,643.03z"/></g><g><path d="M1691.12,688.35c-0.64-0.15-1.27-0.26-1.91-0.34c-0.4-0.1-0.8-0.2-1.22-0.27c-36.07-6.12-61.06-30.41-90-58.54    c-31.19-30.31-66.54-64.67-122.06-79.55c-16.26-4.36-34.04-3.45-49.74-2.65c-15.49,0.79-31.47,1.6-38.22-3.27    c-2.99-5.07-5.9-12.22-8.72-19.17c-3.84-9.46-7.82-19.25-13.22-27.35c-10.45-15.68-22.85-18.97-31.41-18.97    c-10.66,0-25.5,4.74-35.67,27.31c-5.15,11.43-8.16,24.93-10.81,36.85c-0.64,2.85-1.25,5.63-1.86,8.18    c-98.26,41.29-279.62,46.59-418,11.66c-148.62-43.63-282.76-25.1-387.93,53.6c-34.77,26.01-66.22,58.56-93.49,96.72    c-26.73,37.41-49.63,80.5-68.07,128.05c-18.28,47.16-32.3,99.04-41.65,154.19c-9.4,55.38-14.16,114.46-14.16,175.6v307.87    c0,23.98,19.51,43.48,43.48,43.48h109.9c19.8,0,37.1-13.38,42.08-32.54c0.02-0.09,0.04-0.19,0.06-0.28    c15.97-45.19,43.3-82.26,82.55-111.67l111.64,126.34c8.11,11.29,21.23,18.15,35.32,18.15h105.37c23.98,0,43.48-19.5,43.48-43.48    c0-6.59-1.53-13.14-4.42-19.05c-0.09-0.21-0.15-0.42-0.25-0.63l-72.36-158.72c71.09-9.79,142.34-10.74,201.07-10.83    c-0.47,66.24,6.79,131.9,21.64,195.23c0.19,0.79,0.44,1.55,0.72,2.29c3.94,20.21,21.88,35.18,42.68,35.18h109.9    c23.23,0,42.31-18.18,43.43-41.38c0.01-0.1,0-0.2,0-0.3c4.95-53.06,12.4-100.98,22.04-144.31l35.72,150.42    c0.13,0.54,0.28,1.07,0.46,1.59c4.4,19.58,22.1,33.98,42.42,33.98h107.43c14.57,0,27.48-7.21,35.38-18.25    c4.2-3.29,6.91-8.39,6.91-14.14v-1.02c0.77-3.23,1.19-6.6,1.19-10.07c0-2.25-0.43-4.4-1.19-6.38v-487.6    c54.93-32.2,114.79-52.02,175.54-66.84c40.37-8.89,74.58-30.81,98.93-63.41c20.65-27.65,32.66-61.45,32.94-92.72    C1737.35,723.09,1719.77,695.13,1691.12,688.35z M799.07,1472.53c0.28,0.73,0.59,1.45,0.97,2.16c0.59,1.1,0.9,2.34,0.9,3.58    c0,4.17-3.39,7.56-7.56,7.56H688.01c-2.73,0-5.26-1.48-6.6-3.87c-1.23-2.19-2.85-4.02-4.73-5.46l-105.27-119.13    c30.35-17.36,66.17-31.3,107.66-41.95c14.47-3.71,29.17-6.89,43.97-9.63L799.07,1472.53z M1393.68,1482.33    c-1.34,2.1-3.69,3.51-6.37,3.51h-107.43c-3.71,0-6.93-2.77-7.47-6.44c-0.19-1.29-0.53-2.53-0.97-3.71l-49.57-208.75    c-0.29-1.22-0.7-2.37-1.2-3.46c39.65-124.54,100.82-203.39,173.02-255.74V1482.33z M1597.11,882.43    c-0.07,0.02-0.14,0.04-0.21,0.06c-0.07,0.02-0.15,0.02-0.22,0.04c-62.25,15.18-114.82,34.2-160.74,58.14    c-53.95,28.12-98.82,62.87-137.18,106.24c-86.79,98.12-137.61,239.09-155.37,430.98c-0.04,0.43-0.04,0.86-0.05,1.29    c-0.45,3.77-3.64,6.66-7.5,6.66h-109.9c-3.75,0-6.97-2.8-7.49-6.52c-0.21-1.51-0.62-2.93-1.17-4.28    c-29.05-124.69-26.92-261,6.03-383.95c2.57-9.58-3.12-19.43-12.7-22c-9.58-2.57-19.43,3.12-22,12.7    c-14.85,55.43-23.78,112.93-26.68,171.34c-65.05,0.09-145.43,1.15-225.25,13.87c-3.59-0.73-7.42-0.39-11.01,1.25    c-0.58,0.26-1.14,0.56-1.68,0.88c-18.08,3.17-36.09,6.96-53.84,11.51c-59.14,15.18-108.97,37.45-148.11,66.21    c-46.45,34.13-79.38,78.33-97.85,131.37c-0.27,0.77-0.46,1.55-0.62,2.33c-0.98,3.13-3.89,5.29-7.2,5.29h-109.9    c-4.17,0-7.56-3.39-7.56-7.56V1170.4c0-237.64,73.98-429.29,202.98-525.81c95.83-71.7,219.14-88.23,356.6-47.8    c0.22,0.06,0.44,0.12,0.66,0.18c69.63,17.62,152.89,26.11,234.43,23.9c85.69-2.32,161.67-16.65,213.94-40.36    c0.15-0.07,0.28-0.15,0.43-0.22c4.85-1.91,8.83-5.89,10.55-11.24c1.75-5.46,3.2-11.97,4.73-18.85c1.86-8.35,3.96-17.8,6.68-25.36    c1.99-5.54,3.72-8.4,4.79-9.8c3.65,4.21,8.53,16.23,11.3,23.04c3.85,9.46,7.82,19.25,13.22,27.35c0.66,0.98,1.41,1.9,2.24,2.74    c17.21,17.21,42.31,15.93,66.57,14.7c13.68-0.7,27.83-1.42,38.61,1.47c46.49,12.46,76.91,42.02,106.32,70.61    c30.45,29.6,61.95,60.21,109.03,68.2c0.2,0.03,0.4,0.05,0.61,0.08c0.09,0.02,0.17,0.05,0.26,0.07    c13.67,3.24,18.39,21.59,18.25,37.68C1700.75,799.26,1672.22,866.07,1597.11,882.43z"/></g></g><text x="0" y="2015" fill="#000000" font-size="5px" font-weight="bold" font-family="'Helvetica Neue', Helvetica, Arial-Unicode, Arial, Sans-serif">Created by Rifai</text><text x="0" y="2020" fill="#000000" font-size="5px" font-weight="bold" font-family="'Helvetica Neue', Helvetica, Arial-Unicode, Arial, Sans-serif">from the Noun Project</text></svg>