<svg xmlns="http://www.w3.org/2000/svg" xmlns:xlink="http://www.w3.org/1999/xlink" version="1.1" x="0px" y="0px" viewBox="0 0 100 125" style="enable-background:new 0 0 100 100;" xml:space="preserve"><g><path d="M51.29,15.7c-19.09,0-34.62,15.53-34.62,34.62S32.2,84.94,51.29,84.94S85.9,69.41,85.9,50.32S70.37,15.7,51.29,15.7z    M51.29,80.94c-16.88,0-30.62-13.73-30.62-30.62S34.4,19.7,51.29,19.7S81.9,33.44,81.9,50.32S68.17,80.94,51.29,80.94z"/><path d="M64.8,34.15l-20.44,7.38c-0.55,0.2-0.99,0.63-1.19,1.18l-7.95,21.19c-0.28,0.74-0.09,1.58,0.47,2.13   c0.38,0.37,0.89,0.57,1.4,0.57c0.25,0,0.5-0.05,0.74-0.14l22.33-8.89c0.56-0.22,0.99-0.69,1.17-1.27l6.05-19.68   c0.22-0.72,0.02-1.51-0.53-2.04C66.31,34.06,65.51,33.9,64.8,34.15z M57.79,54.21l-17.24,6.87l6.04-16.09l15.8-5.71L57.79,54.21z"/></g><text x="0" y="115" fill="#000000" font-size="5px" font-weight="bold" font-family="'Helvetica Neue', Helvetica, Arial-Unicode, Arial, Sans-serif">Created by sureya</text><text x="0" y="120" fill="#000000" font-size="5px" font-weight="bold" font-family="'Helvetica Neue', Helvetica, Arial-Unicode, Arial, Sans-serif">from the Noun Project</text></svg>