<svg xmlns:dc="http://purl.org/dc/elements/1.1/" xmlns:cc="http://creativecommons.org/ns#" xmlns:rdf="http://www.w3.org/1999/02/22-rdf-syntax-ns#" xmlns:svg="http://www.w3.org/2000/svg" xmlns="http://www.w3.org/2000/svg" xmlns:sodipodi="http://sodipodi.sourceforge.net/DTD/sodipodi-0.dtd" xmlns:inkscape="http://www.inkscape.org/namespaces/inkscape" version="1.1" x="0px" y="0px" viewBox="0 0 100 125"><g transform="translate(0,-952.36218)"><path style="text-indent:0;text-transform:none;direction:ltr;block-progression:tb;baseline-shift:baseline;color:#000000;enable-background:accumulate;" d="m 51.79792,970.37313 a 2.0011068,1.9998576 0 0 0 -1.750793,1.68721 l -3.00136,18.93426 0,0.0625 c -0.171209,0.91608 -0.394248,2.00361 -0.687812,2.68704 -0.14999,0.34918 -0.319033,0.57316 -0.37517,0.6249 0.07456,-0.006 -1.654477,-0.23542 -3.251474,-2.99949 a 2.0011068,1.9998576 0 0 0 0,-0.0312 l -6.00272,-9.99828 a 2.0011068,1.9998576 0 0 0 -3.689172,0.62489 c -0.333079,1.70784 -1.408067,3.5386 -2.0947,4.43674 -0.42229,-0.0991 -1.037582,-0.30354 -1.719529,-0.59365 -1.415889,-0.60234 -3.063169,-1.48407 -4.189399,-2.15588 a 2.0011068,1.9998576 0 0 0 -3.00136,2.06215 c 0.356498,1.90331 1.143755,3.44272 1.50068,4.6867 0.327855,1.14265 0.347006,1.80356 -0.125057,2.62455 -0.582587,0.49606 -1.223918,0.67582 -2.282284,0.65613 -1.158754,-0.0216 -2.580208,-0.30863 -4.12687,-0.31244 a 2.0011068,1.9998576 0 0 0 -1.406888,3.40566 l 14.131405,14.12259 -4.72089,2.7183 a 2.0011068,1.9998576 0 0 0 0.437698,3.6556 l 15.163123,4.4367 c -1.200339,2.0443 -2.436098,3.9864 -3.908022,5.4679 -1.931781,1.9442 -4.125064,3.1869 -7.690985,3.1869 -1.482175,-8e-4 -3.316629,-0.3281 -5.47123,-0.9373 a 2.0011068,1.9998576 0 1 0 -1.062982,3.843 c 2.367095,0.6693 4.506386,1.0927 6.534212,1.0937 4.582003,0 8.051268,-1.8734 10.536025,-4.3743 1.800513,-1.8122 3.151529,-3.9032 4.345719,-5.9365 l 8.722704,8.7172 a 2.0011068,1.9998576 0 0 0 3.345266,-0.8748 l 1.469416,-5.1553 19.133672,4.6242 a 2.0011068,1.9998576 0 0 0 2.188492,-2.937 c -0.787573,-1.3549 -1.844816,-2.521 -2.46987,-3.5307 -0.312526,-0.5048 -0.480627,-0.9734 -0.531491,-1.2185 -0.05086,-0.2452 -0.06255,-0.2359 0,-0.3438 0.343315,-0.5942 1.120718,-0.9078 2.626191,-1.156 1.505472,-0.2481 3.409155,-0.2666 5.314908,-0.9373 a 2.0011068,1.9998576 0 0 0 0.312642,-3.6244 c -1.324393,-0.7387 -3.255258,-1.6824 -4.814682,-2.6558 -0.779711,-0.4868 -1.464176,-0.9965 -1.844586,-1.3748 0.535835,-0.7811 1.063991,-1.5537 1.469416,-1.8747 0.568252,-0.45 1.411275,-0.8685 2.532398,-1.8434 a 2.0011068,1.9998576 0 0 0 -1.313095,-3.5307 l -13.005895,0 c -1.45454,0 -2.08278,-0.38 -2.469869,-0.781 -0.38709,-0.4011 -0.531491,-0.9741 -0.531491,-1.2186 0,-0.5656 1.13877,-2.4075 2.25102,-3.4056 l 0.03126,-0.031 c 0.01002,-0.01 0.02125,-0.023 0.03126,-0.031 l 13.94382,-10.93566 a 2.0011068,1.9998576 0 0 0 -1.12551,-3.56189 c -2.847563,-0.17074 -6.006888,0.48727 -8.128684,0.46866 -1.060899,-0.009 -1.737966,-0.24497 -1.87585,-0.34369 -0.13337,-0.0955 -0.211019,-0.0623 -0.125057,-0.90609 l 0,-0.0312 1.000453,-8.96721 a 2.0011068,1.9998576 0 0 0 -3.063888,-1.93717 l -8.003628,4.99914 a 2.0011068,1.9998576 0 0 0 -0.125056,0.0937 c -0.776998,0.56715 -0.623991,0.40684 -0.687812,0.37493 -0.06382,-0.0319 -0.555438,-0.50878 -1.031718,-1.43725 -0.952559,-1.85694 -1.824381,-4.99234 -3.439058,-7.43623 a 2.0011068,1.9998576 0 0 0 -1.875851,-0.87485 z m 1.156775,8.811 c 0.213977,0.48567 0.358086,0.85234 0.594019,1.31227 0.632188,1.2324 1.367211,2.46382 2.813775,3.18696 1.400585,0.70015 3.235559,0.34101 4.689626,-0.65614 l 0.03126,0.0312 0.125056,-0.0937 4.34572,-2.71829 -0.531491,4.87417 a 2.0011068,1.9998576 0 0 0 0,0.0312 c -0.197107,1.82885 0.471786,3.65494 1.782058,4.59297 1.310272,0.93803 2.771857,1.08113 4.189399,1.09356 0.627851,0.006 1.108761,-0.0827 1.750793,-0.12498 l -8.972817,7.06129 a 2.0011068,1.9998576 0 0 0 -0.06253,0.0625 c -1.631997,1.41912 -3.689172,3.50477 -3.689172,6.49887 0,1.3012 0.487001,2.7561 1.657001,3.9681 1.17,1.212 3.024539,2.0309 5.346173,2.0309 l 7.628457,0 c -0.441174,0.5633 -0.867201,1.2028 -1.344359,2.0309 a 2.0011068,1.9998576 0 0 0 -0.281377,0.9685 c 0,1.4007 0.758052,2.3546 1.50068,3.0933 0.742627,0.7387 1.613316,1.3635 2.532397,1.9372 0.02255,0.014 0.03991,0.017 0.06253,0.031 -1.749276,0.3512 -3.694425,0.998 -4.814682,2.937 -0.584564,1.0086 -0.699781,2.1938 -0.500227,3.1557 0.144992,0.699 0.47895,1.2531 0.781604,1.8122 l -16.101047,-3.9056 a 2.0011068,1.9998576 0 0 0 -2.407341,1.4061 l -1.062982,3.718 -7.065702,-7.0613 5.815135,-10.1232 a 2.0011068,1.9998576 0 0 0 -1.938378,-2.9995 2.0011068,1.9998576 0 0 0 -1.563209,1.0311 l -5.596286,9.7795 -11.599007,-3.4056 2.938832,-1.656 a 2.0011068,1.9998576 0 0 0 0.406434,-3.1557 L 22.034431,997.55598 c 1.47131,-0.11436 3.075871,-0.48079 4.376984,-1.78094 a 2.0011068,1.9998576 0 0 0 0.250113,-0.31245 c 1.370775,-2.05466 1.214968,-4.377 0.719076,-6.12395 0.103287,0.0455 0.178361,0.1124 0.281377,0.15622 0.843995,0.35905 1.647956,0.66173 2.46987,0.84361 0.821913,0.18187 1.711313,0.42215 2.876303,-0.24996 a 2.0011068,1.9998576 0 0 0 0.406435,-0.31245 c 0.712017,-0.7115 1.425171,-1.69166 2.032171,-2.81202 l 3.845493,6.40516 c 2.158017,3.73507 4.742251,4.99914 6.721796,4.99914 1.03359,0 2.033314,-0.45835 2.688719,-1.06232 0.655405,-0.60396 1.054314,-1.32442 1.344359,-1.99965 0.580088,-1.35047 0.775066,-2.71918 0.937925,-3.59314 a 2.0011068,1.9998576 0 0 0 0,-0.0312 l 1.969643,-12.49786 z" fill="#000000" fill-opacity="1" fill-rule="nonzero" stroke="none" marker="none" visibility="visible" display="inline" overflow="visible"/></g><text x="0" y="115" fill="#000000" font-size="5px" font-weight="bold" font-family="'Helvetica Neue', Helvetica, Arial-Unicode, Arial, Sans-serif">Created by vigorn</text><text x="0" y="120" fill="#000000" font-size="5px" font-weight="bold" font-family="'Helvetica Neue', Helvetica, Arial-Unicode, Arial, Sans-serif">from the Noun Project</text></svg>