<?xml version="1.0" encoding="utf-8"?>
<!-- Generator: Adobe Illustrator 27.9.0, SVG Export Plug-In . SVG Version: 6.00 Build 0)  -->
<svg version="1.1" id="Layer_1" xmlns="http://www.w3.org/2000/svg" xmlns:xlink="http://www.w3.org/1999/xlink" x="0px" y="0px"
	 viewBox="0 0 1419 1419" style="enable-background:new 0 0 1419 1419;" xml:space="preserve">
<style type="text/css">
	.st0{fill:#2A1C00;}
</style>
<g>
	<path class="st0" d="M698.9,570.3c-108,0-195.9,87.9-195.9,195.9s87.9,195.9,195.9,195.9s195.8-87.9,195.8-195.9
		S806.8,570.3,698.9,570.3z M698.9,939.4c-95.5,0-173.2-77.7-173.2-173.2S603.3,593,698.9,593s173.2,77.7,173.2,173.2
		S794.4,939.4,698.9,939.4z"/>
	<path class="st0" d="M775.3,674.7l-115.6,41.8c-3.1,1.1-5.6,3.6-6.7,6.7L608,843c-1.6,4.2-0.5,8.9,2.7,12.1c2.1,2.1,5,3.2,7.9,3.2
		c1.4,0,2.8-0.3,4.2-0.8l126.3-50.3c3.2-1.2,5.6-3.9,6.6-7.2l34.2-111.3c1.2-4.1,0.1-8.5-3-11.5
		C783.8,674.2,779.3,673.3,775.3,674.7z M735.6,788.2l-97.5,38.9l34.2-91l89.4-32.3L735.6,788.2z"/>
</g>
</svg>
